<svg width="186" height="38" viewBox="0 0 186 38" fill="none" xmlns="http://www.w3.org/2000/svg">
<path d="M61.568 2.104H70.688V3.192C68.48 3.288 68.288 3.416 68.288 5.016V16.088C68.288 17.784 68 19.192 67.392 20.248C66.048 22.616 63.328 23.512 59.712 23.512C56.064 23.512 53.408 22.712 52.096 20.536C51.392 19.448 51.04 17.944 51.04 16.088V5.016C51.04 3.416 50.848 3.288 48.672 3.192V2.104H57.952V3.192C55.808 3.32 55.584 3.416 55.584 5.016V16.248C55.584 19.736 56.608 22.2 59.712 22.2C62.912 22.2 63.936 19.8 63.936 16.248V5.016C63.936 3.416 63.744 3.288 61.568 3.192V2.104ZM82.2885 23H72.3045V21.912C74.5765 21.784 74.7685 21.656 74.7685 20.088V5.016C74.7685 3.448 74.5765 3.288 72.3045 3.192V2.104H82.0005C84.3365 2.104 86.0645 2.328 87.4405 3.192C88.9125 4.088 89.7765 5.816 89.7765 8.12C89.7765 10.712 88.5925 12.504 86.8965 13.496C85.5845 14.36 83.8565 14.776 81.4565 14.776C80.5605 14.776 79.8245 14.68 79.3445 14.584V20.088C79.3445 21.656 79.5045 21.784 82.2885 21.944V23ZM79.3445 4.536V12.024C79.3445 13.08 80.1445 13.432 81.5205 13.432C84.1445 13.432 85.0405 11.416 85.0405 8.312C85.0405 4.856 83.3445 3.416 81.1045 3.416C79.4405 3.416 79.3445 3.672 79.3445 4.536ZM103.247 3.416V20.12C103.247 21.272 103.407 21.72 104.591 21.784L106.255 21.912V23H95.695V21.912L97.391 21.784C98.511 21.72 98.703 21.272 98.703 20.12V3.416H97.359C94.415 3.416 93.999 4.568 93.103 7.736H91.983V2.104H109.967V7.736H108.847C107.951 4.568 107.535 3.416 104.591 3.416H103.247ZM122.21 2.904H122.178C117.57 2.904 116.93 8.568 116.93 12.568C116.93 16.76 117.57 22.2 122.21 22.2C126.818 22.2 127.458 16.76 127.458 12.568C127.458 8.568 126.818 2.904 122.21 2.904ZM122.21 1.56H122.242C129.122 1.56 132.482 5.784 132.482 12.568C132.482 19.32 129.122 23.512 122.21 23.512C115.266 23.512 111.906 19.32 111.906 12.568C111.906 5.784 115.266 1.56 122.21 1.56ZM156.536 2.104H163.288V3.16C161.592 3.352 161.24 3.48 160.792 4.952C159.512 9.304 157.144 18.168 155.8 23H152.152C151.128 19 149.112 11.8 148.056 8.312H147.96L144.408 23H140.792C139.192 16.952 137.432 10.744 135.64 4.696C135.256 3.48 134.872 3.288 133.303 3.16V2.104H142.2V3.16L140.792 3.352C140.056 3.48 140.056 3.8 140.216 4.536C141.144 8.376 142.936 14.712 143.96 18.488H144.024C144.824 15.16 147.032 5.816 147.672 2.584H150.904C152.056 7.032 154.232 14.264 155.416 18.36H155.544C156.76 13.816 158.008 8.984 158.872 4.568C159 3.864 158.936 3.448 158.264 3.384L156.536 3.16V2.104ZM182.336 23H179.296C175.552 17.272 171.776 11.544 167.904 5.816H167.808V15.672C167.808 17.944 167.84 19.096 167.968 20.184C168.16 21.976 169.184 21.72 170.944 21.88V23H163.552V21.88C165.152 21.72 165.824 21.848 166.016 20.184C166.144 19.128 166.176 17.976 166.176 15.672V5.016C166.176 3.448 165.984 3.288 163.712 3.192V2.104H170.56C173.728 6.904 177.184 11.928 180.576 16.888L180.672 16.92V9.368C180.672 7.128 180.64 5.944 180.512 4.888C180.319 3.096 179.296 3.352 177.504 3.192V2.104H184.864V3.192C183.296 3.352 182.688 3.224 182.496 4.888C182.368 5.944 182.336 7.096 182.336 9.368V23Z" fill="#FEFEFE"/>
<line x1="48" y1="33" x2="84" y2="33" stroke="white"/>
<path d="M88.186 31.082H90.19C91.036 31.082 91.45 31.34 91.45 31.988C91.45 32.498 91.12 32.768 90.55 32.876V32.912C91.096 32.978 91.612 33.17 91.612 33.86C91.612 34.226 91.486 34.496 91.258 34.682C91.012 34.88 90.616 35 89.932 35H88.186V34.79C88.612 34.766 88.648 34.742 88.648 34.448V31.628C88.648 31.328 88.612 31.304 88.186 31.286V31.082ZM89.506 31.556V32.798H89.8C90.358 32.798 90.604 32.516 90.604 32.06C90.604 31.598 90.34 31.328 89.836 31.328C89.566 31.334 89.506 31.352 89.506 31.556ZM89.506 33.044V34.37C89.506 34.664 89.596 34.754 89.92 34.754C90.322 34.754 90.7 34.538 90.7 33.902C90.7 33.362 90.43 33.044 89.812 33.044H89.506ZM93.3322 33.17V34.448C93.3322 34.742 93.3682 34.766 93.7942 34.79V35H92.0122V34.79C92.4382 34.766 92.4742 34.742 92.4742 34.448V31.628C92.4742 31.328 92.4382 31.304 92.0122 31.286V31.082H93.9142C94.6942 31.082 95.2282 31.274 95.2282 32.048C95.2282 32.606 94.8382 32.924 94.2862 33.002V33.026C94.9042 33.17 95.0962 33.566 95.1742 34.028C95.2462 34.454 95.3422 34.766 95.7442 34.79V35H95.2822C94.7482 35 94.4842 34.856 94.3642 34.448C94.2802 34.166 94.2382 33.824 94.1962 33.632C94.1062 33.272 93.9202 33.17 93.5962 33.17H93.3322ZM93.3322 31.556V32.924H93.6142C94.2022 32.924 94.3462 32.588 94.3462 32.114C94.3462 31.502 94.0162 31.328 93.6382 31.328C93.3382 31.328 93.3322 31.376 93.3322 31.556ZM96.3355 34.448V31.628C96.3355 31.328 96.2995 31.304 95.8735 31.286V31.082H98.8855V32.102H98.6755C98.5255 31.538 98.4175 31.328 97.8175 31.328H97.3855C97.2235 31.328 97.1875 31.364 97.1875 31.532V32.828H97.7575C98.1415 32.828 98.2075 32.708 98.2855 32.312H98.4955V33.638H98.2855C98.2075 33.236 98.1415 33.098 97.7575 33.098H97.1875V34.322C97.1875 34.688 97.2295 34.754 97.8715 34.754C98.5495 34.754 98.6995 34.478 98.8855 33.86H99.0955L98.9995 35H95.8735V34.79C96.2995 34.772 96.3355 34.742 96.3355 34.448ZM103.315 35H101.545V34.79L101.857 34.76C101.989 34.748 102.013 34.676 101.965 34.544C101.869 34.238 101.713 33.788 101.641 33.578H100.477C100.369 33.926 100.261 34.25 100.183 34.55C100.147 34.682 100.159 34.748 100.291 34.76L100.621 34.79V35H99.3428V34.79C99.6608 34.772 99.7148 34.724 99.8168 34.472C100.141 33.662 100.651 32.126 101.005 31.058H101.671C101.989 32.024 102.559 33.728 102.847 34.508C102.937 34.748 103.015 34.778 103.315 34.79V35ZM101.557 33.32C101.431 32.936 101.185 32.144 101.065 31.766H101.047C100.921 32.162 100.711 32.828 100.561 33.32H101.557ZM103.935 34.448V31.628C103.935 31.328 103.899 31.304 103.473 31.286V31.082H105.249V31.286C104.823 31.304 104.787 31.328 104.787 31.628V34.448C104.787 34.748 104.823 34.766 105.249 34.79V35H103.473V34.79C103.899 34.766 103.935 34.742 103.935 34.448ZM106.173 31.478C106.257 31.376 106.245 31.316 106.149 31.304L105.843 31.28V31.082H107.331V31.28C106.953 31.304 106.845 31.346 106.623 31.52C106.233 31.82 105.921 32.186 105.495 32.636C105.825 33.17 106.359 33.926 106.845 34.472C107.013 34.658 107.199 34.79 107.361 34.832L107.349 35.036L106.965 35.024C106.335 35.006 106.041 34.904 105.675 34.4C105.357 33.986 105.111 33.584 104.811 33.038V33.002C105.261 32.54 105.873 31.868 106.173 31.478ZM107.54 31.082H110.516V32.102H110.306C110.15 31.55 110.048 31.328 109.442 31.328H109.052C108.89 31.328 108.854 31.364 108.854 31.532V32.912H109.502C109.886 32.912 109.952 32.792 110.03 32.39H110.24V33.71H110.03C109.952 33.308 109.886 33.182 109.502 33.182H108.854V34.448C108.854 34.742 108.89 34.772 109.406 34.79V35H107.54V34.79C107.966 34.772 108.002 34.742 108.002 34.448V31.628C108.002 31.328 107.966 31.304 107.54 31.286V31.082ZM114.284 35H112.514V34.79L112.826 34.76C112.958 34.748 112.982 34.676 112.934 34.544C112.838 34.238 112.682 33.788 112.61 33.578H111.446C111.338 33.926 111.23 34.25 111.152 34.55C111.116 34.682 111.128 34.748 111.26 34.76L111.59 34.79V35H110.312V34.79C110.63 34.772 110.684 34.724 110.786 34.472C111.11 33.662 111.62 32.126 111.974 31.058H112.64C112.958 32.024 113.528 33.728 113.816 34.508C113.906 34.748 113.984 34.778 114.284 34.79V35ZM112.526 33.32C112.4 32.936 112.154 32.144 112.034 31.766H112.016C111.89 32.162 111.68 32.828 111.53 33.32H112.526ZM116.974 32.144H116.77C116.626 31.502 116.302 31.232 115.906 31.232C115.516 31.232 115.288 31.502 115.288 31.856C115.288 32.294 115.702 32.468 116.128 32.66C116.698 32.9 117.214 33.134 117.214 33.884C117.214 34.478 116.854 35.096 115.75 35.096C115.366 35.096 114.85 35.018 114.568 34.766L114.496 33.758H114.7C114.904 34.454 115.288 34.85 115.75 34.85C116.152 34.85 116.422 34.634 116.422 34.196C116.422 33.818 116.146 33.596 115.654 33.392C115.012 33.122 114.538 32.858 114.538 32.156C114.538 31.454 115.006 30.98 115.918 30.98C116.272 30.98 116.698 31.064 116.974 31.232V32.144ZM119.634 31.328V34.46C119.634 34.676 119.664 34.76 119.886 34.772L120.198 34.796V35H118.218V34.796L118.536 34.772C118.746 34.76 118.782 34.676 118.782 34.46V31.328H118.53C117.978 31.328 117.9 31.544 117.732 32.138H117.522V31.082H120.894V32.138H120.684C120.516 31.544 120.438 31.328 119.886 31.328H119.634Z" fill="white"/>
<rect x="124" y="33.4448" width="3" height="3" transform="rotate(-43.509 124 33.4448)" fill="white"/>
<path d="M132.747 31.628V34.322C132.747 34.688 132.855 34.754 133.377 34.754C134.007 34.754 134.133 34.484 134.319 33.872H134.529L134.451 35H131.427V34.79C131.847 34.766 131.889 34.742 131.889 34.448V31.628C131.889 31.328 131.847 31.304 131.427 31.286V31.082H133.263V31.286C132.783 31.31 132.747 31.328 132.747 31.628ZM137.002 31.082H138.712V31.286C138.298 31.304 138.262 31.328 138.262 31.628V33.704C138.262 34.022 138.208 34.286 138.094 34.484C137.842 34.928 137.332 35.096 136.654 35.096C135.97 35.096 135.472 34.946 135.226 34.538C135.094 34.334 135.028 34.052 135.028 33.704V31.628C135.028 31.328 134.992 31.304 134.584 31.286V31.082H136.324V31.286C135.922 31.31 135.88 31.328 135.88 31.628V33.734C135.88 34.388 136.072 34.85 136.654 34.85C137.254 34.85 137.446 34.4 137.446 33.734V31.628C137.446 31.328 137.41 31.304 137.002 31.286V31.082ZM142.513 35H141.943C141.241 33.926 140.533 32.852 139.807 31.778H139.789V33.626C139.789 34.052 139.795 34.268 139.819 34.472C139.855 34.808 140.047 34.76 140.377 34.79V35H138.991V34.79C139.291 34.76 139.417 34.784 139.453 34.472C139.477 34.274 139.483 34.058 139.483 33.626V31.628C139.483 31.334 139.447 31.304 139.021 31.286V31.082H140.305C140.899 31.982 141.547 32.924 142.183 33.854L142.201 33.86V32.444C142.201 32.024 142.195 31.802 142.171 31.604C142.135 31.268 141.943 31.316 141.607 31.286V31.082H142.987V31.286C142.693 31.316 142.579 31.292 142.543 31.604C142.519 31.802 142.513 32.018 142.513 32.444V35ZM146.587 33.764H146.797L146.725 34.838C146.401 35.024 145.831 35.096 145.423 35.096C143.959 35.096 143.353 34.328 143.353 33.08C143.353 32.48 143.503 31.958 143.845 31.58C144.181 31.202 144.727 30.98 145.507 30.98C145.837 30.98 146.401 31.046 146.725 31.232V32.222H146.515C146.365 31.694 146.137 31.232 145.453 31.232C144.421 31.232 144.295 32.474 144.295 33.002C144.295 33.656 144.451 34.85 145.495 34.85C146.155 34.85 146.383 34.376 146.587 33.764ZM150.092 33.05H148.544V34.448C148.544 34.742 148.58 34.766 149.006 34.79V35H147.224V34.79C147.65 34.766 147.686 34.742 147.686 34.448V31.628C147.686 31.328 147.65 31.304 147.224 31.286V31.082H149.006V31.286C148.58 31.304 148.544 31.328 148.544 31.628V32.792H150.092V31.628C150.092 31.334 150.056 31.304 149.63 31.286V31.082H151.412V31.286C150.986 31.304 150.95 31.328 150.95 31.628V34.448C150.95 34.742 150.986 34.766 151.412 34.79V35H149.63V34.79C150.056 34.766 150.092 34.748 150.092 34.448V33.05Z" fill="white"/>
<rect x="154.241" y="33.4448" width="3" height="3" transform="rotate(-43.509 154.241 33.4448)" fill="white"/>
<path d="M162.988 31.52V34.448C162.988 34.688 163.054 34.754 163.444 34.754C164.116 34.754 164.698 34.484 164.698 32.996C164.698 31.94 164.308 31.328 163.45 31.328C163.036 31.328 162.988 31.358 162.988 31.52ZM161.668 31.082H163.6C164.326 31.082 164.824 31.22 165.16 31.544C165.49 31.868 165.64 32.348 165.64 32.972C165.64 34.742 164.344 35 163.36 35H161.668V34.79C162.094 34.766 162.13 34.748 162.13 34.448V31.628C162.13 31.328 162.094 31.304 161.668 31.286V31.082ZM167.395 31.628V34.448C167.395 34.742 167.431 34.766 167.857 34.79V35H166.081V34.79C166.501 34.766 166.543 34.742 166.543 34.448V31.628C166.543 31.334 166.507 31.304 166.081 31.286V31.082H167.857V31.286C167.431 31.304 167.395 31.328 167.395 31.628ZM171.729 35H171.159C170.457 33.926 169.749 32.852 169.023 31.778H169.005V33.626C169.005 34.052 169.011 34.268 169.035 34.472C169.071 34.808 169.263 34.76 169.593 34.79V35H168.207V34.79C168.507 34.76 168.633 34.784 168.669 34.472C168.693 34.274 168.699 34.058 168.699 33.626V31.628C168.699 31.334 168.663 31.304 168.237 31.286V31.082H169.521C170.115 31.982 170.763 32.924 171.399 33.854L171.417 33.86V32.444C171.417 32.024 171.411 31.802 171.387 31.604C171.351 31.268 171.159 31.316 170.823 31.286V31.082H172.203V31.286C171.909 31.316 171.795 31.292 171.759 31.604C171.735 31.802 171.729 32.018 171.729 32.444V35ZM176 35H175.43C174.728 33.926 174.02 32.852 173.294 31.778H173.276V33.626C173.276 34.052 173.282 34.268 173.306 34.472C173.342 34.808 173.534 34.76 173.864 34.79V35H172.478V34.79C172.778 34.76 172.904 34.784 172.94 34.472C172.964 34.274 172.97 34.058 172.97 33.626V31.628C172.97 31.334 172.934 31.304 172.508 31.286V31.082H173.792C174.386 31.982 175.034 32.924 175.67 33.854L175.688 33.86V32.444C175.688 32.024 175.682 31.802 175.658 31.604C175.622 31.268 175.43 31.316 175.094 31.286V31.082H176.474V31.286C176.18 31.316 176.066 31.292 176.03 31.604C176.006 31.802 176 32.018 176 32.444V35ZM177.236 34.448V31.628C177.236 31.328 177.2 31.304 176.774 31.286V31.082H179.786V32.102H179.576C179.426 31.538 179.318 31.328 178.718 31.328H178.286C178.124 31.328 178.088 31.364 178.088 31.532V32.828H178.658C179.042 32.828 179.108 32.708 179.186 32.312H179.396V33.638H179.186C179.108 33.236 179.042 33.098 178.658 33.098H178.088V34.322C178.088 34.688 178.13 34.754 178.772 34.754C179.45 34.754 179.6 34.478 179.786 33.86H179.996L179.9 35H176.774V34.79C177.2 34.772 177.236 34.742 177.236 34.448ZM181.692 33.17V34.448C181.692 34.742 181.728 34.766 182.154 34.79V35H180.372V34.79C180.798 34.766 180.834 34.742 180.834 34.448V31.628C180.834 31.328 180.798 31.304 180.372 31.286V31.082H182.274C183.054 31.082 183.588 31.274 183.588 32.048C183.588 32.606 183.198 32.924 182.646 33.002V33.026C183.264 33.17 183.456 33.566 183.534 34.028C183.606 34.454 183.702 34.766 184.104 34.79V35H183.642C183.108 35 182.844 34.856 182.724 34.448C182.64 34.166 182.598 33.824 182.556 33.632C182.466 33.272 182.28 33.17 181.956 33.17H181.692ZM181.692 31.556V32.924H181.974C182.562 32.924 182.706 32.588 182.706 32.114C182.706 31.502 182.376 31.328 181.998 31.328C181.698 31.328 181.692 31.376 181.692 31.556Z" fill="white"/>
<ellipse cx="16.5" cy="19" rx="15.5" ry="18" fill="white"/>
<path d="M12.8026 19.7552V1.76071C17.4737 0.261164 28.3572 -0.0387441 34.523 10.758C42.2302 24.2539 29.6184 34.0009 28.2171 34.0009C26.8158 34.0009 21.2105 38.4995 15.6053 36.2502V32.5014C24.5737 34.9006 27.75 26.0033 28.2171 21.2548H33.1217V18.2557H25.4144L20.143 27.4798C19.803 28.0746 18.979 28.1592 18.5253 27.6457L14.2039 22.7543H10V19.7552H12.8026Z" fill="black"/>
<circle cx="19" cy="19" r="18" stroke="#A8A8A8" stroke-width="2"/>
<path d="M27.5171 14.4138L28.8274 15.7378L30.1378 14.4138" stroke="white" stroke-width="2" stroke-linecap="round"/>
</svg>
