<svg width="134" height="67" viewBox="0 0 134 67" fill="none" xmlns="http://www.w3.org/2000/svg">
<circle cx="2" cy="2" r="2" fill="#F9F8FD" fill-opacity="0.68"/>
<circle cx="12" cy="2" r="2" fill="#F9F8FD" fill-opacity="0.68"/>
<circle cx="22" cy="2" r="2" fill="#F9F8FD" fill-opacity="0.68"/>
<circle cx="32" cy="2" r="2" fill="#F9F8FD" fill-opacity="0.68"/>
<circle cx="42" cy="2" r="2" fill="#F9F8FD" fill-opacity="0.68"/>
<circle cx="52" cy="2" r="2" fill="#F9F8FD" fill-opacity="0.68"/>
<circle cx="62" cy="2" r="2" fill="#F9F8FD" fill-opacity="0.68"/>
<circle cx="72" cy="2" r="2" fill="#F9F8FD" fill-opacity="0.68"/>
<circle cx="82" cy="2" r="2" fill="#F9F8FD" fill-opacity="0.68"/>
<circle cx="92" cy="2" r="2" fill="#F9F8FD" fill-opacity="0.68"/>
<circle cx="102" cy="2" r="2" fill="#F9F8FD" fill-opacity="0.68"/>
<circle cx="112" cy="2" r="2" fill="#F9F8FD" fill-opacity="0.68"/>
<circle cx="122" cy="2" r="2" fill="#F9F8FD" fill-opacity="0.68"/>
<circle cx="132" cy="2" r="2" fill="#F9F8FD" fill-opacity="0.68"/>
<circle cx="2" cy="38" r="2" fill="#F9F8FD" fill-opacity="0.68"/>
<circle cx="12" cy="38" r="2" fill="#F9F8FD" fill-opacity="0.68"/>
<circle cx="22" cy="38" r="2" fill="#F9F8FD" fill-opacity="0.68"/>
<circle cx="32" cy="38" r="2" fill="#F9F8FD" fill-opacity="0.68"/>
<circle cx="42" cy="38" r="2" fill="#F9F8FD" fill-opacity="0.68"/>
<circle cx="52" cy="38" r="2" fill="#F9F8FD" fill-opacity="0.68"/>
<circle cx="62" cy="38" r="2" fill="#F9F8FD" fill-opacity="0.68"/>
<circle cx="72" cy="38" r="2" fill="#F9F8FD" fill-opacity="0.68"/>
<circle cx="82" cy="38" r="2" fill="#F9F8FD" fill-opacity="0.68"/>
<circle cx="92" cy="38" r="2" fill="#F9F8FD" fill-opacity="0.68"/>
<circle cx="102" cy="38" r="2" fill="#F9F8FD" fill-opacity="0.68"/>
<circle cx="112" cy="38" r="2" fill="#F9F8FD" fill-opacity="0.68"/>
<circle cx="122" cy="38" r="2" fill="#F9F8FD" fill-opacity="0.68"/>
<circle cx="132" cy="38" r="2" fill="#F9F8FD" fill-opacity="0.68"/>
<circle cx="7" cy="11" r="2" fill="#F9F8FD" fill-opacity="0.68"/>
<circle cx="17" cy="11" r="2" fill="#F9F8FD" fill-opacity="0.68"/>
<circle cx="27" cy="11" r="2" fill="#F9F8FD" fill-opacity="0.68"/>
<circle cx="37" cy="11" r="2" fill="#F9F8FD" fill-opacity="0.68"/>
<circle cx="47" cy="11" r="2" fill="#F9F8FD" fill-opacity="0.68"/>
<circle cx="57" cy="11" r="2" fill="#F9F8FD" fill-opacity="0.68"/>
<circle cx="67" cy="11" r="2" fill="#F9F8FD" fill-opacity="0.68"/>
<circle cx="77" cy="11" r="2" fill="#F9F8FD" fill-opacity="0.68"/>
<circle cx="87" cy="11" r="2" fill="#F9F8FD" fill-opacity="0.68"/>
<circle cx="97" cy="11" r="2" fill="#F9F8FD" fill-opacity="0.68"/>
<circle cx="107" cy="11" r="2" fill="#F9F8FD" fill-opacity="0.68"/>
<circle cx="117" cy="11" r="2" fill="#F9F8FD" fill-opacity="0.68"/>
<circle cx="127" cy="11" r="2" fill="#F9F8FD" fill-opacity="0.68"/>
<circle cx="7" cy="47" r="2" fill="#F9F8FD" fill-opacity="0.68"/>
<circle cx="17" cy="47" r="2" fill="#F9F8FD" fill-opacity="0.68"/>
<circle cx="27" cy="47" r="2" fill="#F9F8FD" fill-opacity="0.68"/>
<circle cx="37" cy="47" r="2" fill="#F9F8FD" fill-opacity="0.68"/>
<circle cx="47" cy="47" r="2" fill="#F9F8FD" fill-opacity="0.68"/>
<circle cx="57" cy="47" r="2" fill="#F9F8FD" fill-opacity="0.68"/>
<circle cx="67" cy="47" r="2" fill="#F9F8FD" fill-opacity="0.68"/>
<circle cx="77" cy="47" r="2" fill="#F9F8FD" fill-opacity="0.68"/>
<circle cx="87" cy="47" r="2" fill="#F9F8FD" fill-opacity="0.68"/>
<circle cx="97" cy="47" r="2" fill="#F9F8FD" fill-opacity="0.68"/>
<circle cx="107" cy="47" r="2" fill="#F9F8FD" fill-opacity="0.68"/>
<circle cx="117" cy="47" r="2" fill="#F9F8FD" fill-opacity="0.68"/>
<circle cx="127" cy="47" r="2" fill="#F9F8FD" fill-opacity="0.68"/>
<circle cx="2" cy="20" r="2" fill="#F9F8FD" fill-opacity="0.68"/>
<circle cx="12" cy="20" r="2" fill="#F9F8FD" fill-opacity="0.68"/>
<circle cx="22" cy="20" r="2" fill="#F9F8FD" fill-opacity="0.68"/>
<circle cx="32" cy="20" r="2" fill="#F9F8FD" fill-opacity="0.68"/>
<circle cx="42" cy="20" r="2" fill="#F9F8FD" fill-opacity="0.68"/>
<circle cx="52" cy="20" r="2" fill="#F9F8FD" fill-opacity="0.68"/>
<circle cx="62" cy="20" r="2" fill="#F9F8FD" fill-opacity="0.68"/>
<circle cx="72" cy="20" r="2" fill="#F9F8FD" fill-opacity="0.68"/>
<circle cx="82" cy="20" r="2" fill="#F9F8FD" fill-opacity="0.68"/>
<circle cx="92" cy="20" r="2" fill="#F9F8FD" fill-opacity="0.68"/>
<circle cx="102" cy="20" r="2" fill="#F9F8FD" fill-opacity="0.68"/>
<circle cx="112" cy="20" r="2" fill="#F9F8FD" fill-opacity="0.68"/>
<circle cx="122" cy="20" r="2" fill="#F9F8FD" fill-opacity="0.68"/>
<circle cx="132" cy="20" r="2" fill="#F9F8FD" fill-opacity="0.68"/>
<circle cx="2" cy="56" r="2" fill="#F9F8FD" fill-opacity="0.68"/>
<circle cx="12" cy="56" r="2" fill="#F9F8FD" fill-opacity="0.68"/>
<circle cx="22" cy="56" r="2" fill="#F9F8FD" fill-opacity="0.68"/>
<circle cx="32" cy="56" r="2" fill="#F9F8FD" fill-opacity="0.68"/>
<circle cx="42" cy="56" r="2" fill="#F9F8FD" fill-opacity="0.68"/>
<circle cx="52" cy="56" r="2" fill="#F9F8FD" fill-opacity="0.68"/>
<circle cx="62" cy="56" r="2" fill="#F9F8FD" fill-opacity="0.68"/>
<circle cx="72" cy="56" r="2" fill="#F9F8FD" fill-opacity="0.68"/>
<circle cx="82" cy="56" r="2" fill="#F9F8FD" fill-opacity="0.68"/>
<circle cx="92" cy="56" r="2" fill="#F9F8FD" fill-opacity="0.68"/>
<circle cx="102" cy="56" r="2" fill="#F9F8FD" fill-opacity="0.68"/>
<circle cx="112" cy="56" r="2" fill="#F9F8FD" fill-opacity="0.68"/>
<circle cx="122" cy="56" r="2" fill="#F9F8FD" fill-opacity="0.68"/>
<circle cx="132" cy="56" r="2" fill="#F9F8FD" fill-opacity="0.68"/>
<circle cx="7" cy="29" r="2" fill="#F9F8FD" fill-opacity="0.68"/>
<circle cx="17" cy="29" r="2" fill="#F9F8FD" fill-opacity="0.68"/>
<circle cx="27" cy="29" r="2" fill="#F9F8FD" fill-opacity="0.68"/>
<circle cx="37" cy="29" r="2" fill="#F9F8FD" fill-opacity="0.68"/>
<circle cx="47" cy="29" r="2" fill="#F9F8FD" fill-opacity="0.68"/>
<circle cx="57" cy="29" r="2" fill="#F9F8FD" fill-opacity="0.68"/>
<circle cx="67" cy="29" r="2" fill="#F9F8FD" fill-opacity="0.68"/>
<circle cx="77" cy="29" r="2" fill="#F9F8FD" fill-opacity="0.68"/>
<circle cx="87" cy="29" r="2" fill="#F9F8FD" fill-opacity="0.68"/>
<circle cx="97" cy="29" r="2" fill="#F9F8FD" fill-opacity="0.68"/>
<circle cx="107" cy="29" r="2" fill="#F9F8FD" fill-opacity="0.68"/>
<circle cx="117" cy="29" r="2" fill="#F9F8FD" fill-opacity="0.68"/>
<circle cx="127" cy="29" r="2" fill="#F9F8FD" fill-opacity="0.68"/>
<circle cx="7" cy="65" r="2" fill="#F9F8FD" fill-opacity="0.68"/>
<circle cx="17" cy="65" r="2" fill="#F9F8FD" fill-opacity="0.68"/>
<circle cx="27" cy="65" r="2" fill="#F9F8FD" fill-opacity="0.68"/>
<circle cx="37" cy="65" r="2" fill="#F9F8FD" fill-opacity="0.68"/>
<circle cx="47" cy="65" r="2" fill="#F9F8FD" fill-opacity="0.68"/>
<circle cx="57" cy="65" r="2" fill="#F9F8FD" fill-opacity="0.68"/>
<circle cx="67" cy="65" r="2" fill="#F9F8FD" fill-opacity="0.68"/>
<circle cx="77" cy="65" r="2" fill="#F9F8FD" fill-opacity="0.68"/>
<circle cx="87" cy="65" r="2" fill="#F9F8FD" fill-opacity="0.68"/>
<circle cx="97" cy="65" r="2" fill="#F9F8FD" fill-opacity="0.68"/>
<circle cx="107" cy="65" r="2" fill="#F9F8FD" fill-opacity="0.68"/>
<circle cx="117" cy="65" r="2" fill="#F9F8FD" fill-opacity="0.68"/>
<circle cx="127" cy="65" r="2" fill="#F9F8FD" fill-opacity="0.68"/>
</svg>
