<svg width="203" height="39" viewBox="0 0 203 39" fill="none" xmlns="http://www.w3.org/2000/svg">
<path d="M63.264 1.492H73.524V2.716C71.04 2.824 70.824 2.968 70.824 4.768V17.224C70.824 19.132 70.5 20.716 69.816 21.904C68.304 24.568 65.244 25.576 61.176 25.576C57.072 25.576 54.084 24.676 52.608 22.228C51.816 21.004 51.42 19.312 51.42 17.224V4.768C51.42 2.968 51.204 2.824 48.756 2.716V1.492H59.196V2.716C56.784 2.86 56.532 2.968 56.532 4.768V17.404C56.532 21.328 57.684 24.1 61.176 24.1C64.776 24.1 65.928 21.4 65.928 17.404V4.768C65.928 2.968 65.712 2.824 63.264 2.716V1.492ZM86.5746 25H75.3426V23.776C77.8986 23.632 78.1146 23.488 78.1146 21.724V4.768C78.1146 3.004 77.8986 2.824 75.3426 2.716V1.492H86.2506C88.8786 1.492 90.8226 1.744 92.3706 2.716C94.0266 3.724 94.9986 5.668 94.9986 8.26C94.9986 11.176 93.6666 13.192 91.7586 14.308C90.2826 15.28 88.3386 15.748 85.6386 15.748C84.6306 15.748 83.8026 15.64 83.2626 15.532V21.724C83.2626 23.488 83.4426 23.632 86.5746 23.812V25ZM83.2626 4.228V12.652C83.2626 13.84 84.1626 14.236 85.7106 14.236C88.6626 14.236 89.6706 11.968 89.6706 8.476C89.6706 4.588 87.7626 2.968 85.2426 2.968C83.3706 2.968 83.2626 3.256 83.2626 4.228ZM110.153 2.968V21.76C110.153 23.056 110.333 23.56 111.665 23.632L113.537 23.776V25H101.657V23.776L103.565 23.632C104.825 23.56 105.041 23.056 105.041 21.76V2.968H103.529C100.217 2.968 99.7489 4.264 98.7409 7.828H97.4809V1.492H117.713V7.828H116.453C115.445 4.264 114.977 2.968 111.665 2.968H110.153ZM131.486 2.392H131.45C126.266 2.392 125.546 8.764 125.546 13.264C125.546 17.98 126.266 24.1 131.486 24.1C136.67 24.1 137.39 17.98 137.39 13.264C137.39 8.764 136.67 2.392 131.486 2.392ZM131.486 0.879999H131.522C139.262 0.879999 143.042 5.632 143.042 13.264C143.042 20.86 139.262 25.576 131.486 25.576C123.674 25.576 119.894 20.86 119.894 13.264C119.894 5.632 123.674 0.879999 131.486 0.879999ZM170.102 1.492H177.698V2.68C175.79 2.896 175.394 3.04 174.89 4.696C173.45 9.592 170.786 19.564 169.274 25H165.17C164.018 20.5 161.75 12.4 160.562 8.476H160.454L156.458 25H152.39C150.59 18.196 148.61 11.212 146.594 4.408C146.162 3.04 145.73 2.824 143.966 2.68V1.492H153.974V2.68L152.39 2.896C151.562 3.04 151.562 3.4 151.742 4.228C152.786 8.548 154.802 15.676 155.954 19.924H156.026C156.926 16.18 159.41 5.668 160.13 2.032H163.766C165.062 7.036 167.51 15.172 168.842 19.78H168.986C170.354 14.668 171.758 9.232 172.73 4.264C172.874 3.472 172.802 3.004 172.046 2.932L170.102 2.68V1.492ZM199.127 25H195.707C191.495 18.556 187.247 12.112 182.891 5.668H182.783V16.756C182.783 19.312 182.819 20.608 182.963 21.832C183.179 23.848 184.331 23.56 186.311 23.74V25H177.995V23.74C179.795 23.56 180.551 23.704 180.767 21.832C180.911 20.644 180.947 19.348 180.947 16.756V4.768C180.947 3.004 180.731 2.824 178.175 2.716V1.492H185.879C189.443 6.892 193.331 12.544 197.147 18.124L197.255 18.16V9.664C197.255 7.144 197.219 5.812 197.075 4.624C196.859 2.608 195.707 2.896 193.691 2.716V1.492H201.971V2.716C200.207 2.896 199.523 2.752 199.307 4.624C199.163 5.812 199.127 7.108 199.127 9.664V25Z" fill="#222222"/>
<line x1="48" y1="34.5" x2="85" y2="34.5" stroke="#222222"/>
<path d="M92.217 32.429H94.723C95.829 32.429 96.165 32.8 96.165 33.486C96.165 34.088 95.78 34.403 95.094 34.522V34.578C95.724 34.655 96.34 34.872 96.34 35.67C96.34 36.097 96.193 36.426 95.92 36.643C95.654 36.86 95.213 37 94.317 37H92.217V36.748C92.665 36.727 92.728 36.692 92.728 36.363V33.066C92.728 32.73 92.672 32.695 92.217 32.681V32.429ZM93.876 32.975V34.431H94.184C94.807 34.431 95.045 34.053 95.045 33.584C95.045 33.115 94.835 32.737 94.198 32.737C93.967 32.744 93.876 32.758 93.876 32.975ZM93.876 34.739V36.272C93.876 36.587 94.009 36.692 94.31 36.692C94.737 36.692 95.122 36.433 95.122 35.719C95.122 35.138 94.863 34.739 94.191 34.739H93.876ZM98.4424 34.893V36.363C98.4424 36.692 98.4984 36.727 98.9534 36.748V37H96.7764V36.748C97.2314 36.727 97.2944 36.692 97.2944 36.363V33.066C97.2944 32.73 97.2384 32.702 96.7764 32.681V32.429H99.0864C99.8774 32.429 100.654 32.52 100.654 33.556C100.654 34.221 100.192 34.585 99.5344 34.662V34.704C100.269 34.872 100.514 35.32 100.605 35.845C100.703 36.356 100.815 36.727 101.263 36.748V37H100.731C99.9964 37 99.6674 36.825 99.5064 36.328C99.3944 35.992 99.3594 35.635 99.3104 35.397C99.2194 35.005 99.0514 34.893 98.6874 34.893H98.4424ZM98.4424 32.975V34.585H98.6944C99.3944 34.585 99.4854 34.13 99.4854 33.64C99.4854 33.01 99.1844 32.737 98.7714 32.737C98.4494 32.737 98.4424 32.793 98.4424 32.975ZM101.916 36.363V33.066C101.916 32.73 101.86 32.695 101.405 32.681V32.429H104.989V33.661H104.737C104.513 33.017 104.394 32.737 103.729 32.737H103.281C103.099 32.737 103.05 32.786 103.05 32.975V34.445H103.61C104.009 34.445 104.1 34.333 104.212 33.843H104.464V35.425H104.212C104.1 34.935 104.009 34.788 103.61 34.788H103.05V36.216C103.05 36.629 103.085 36.692 103.827 36.692C104.604 36.692 104.716 36.293 104.968 35.6H105.22L105.122 37H101.405V36.748C101.853 36.734 101.916 36.692 101.916 36.363ZM110.197 37H107.978V36.748L108.37 36.706C108.503 36.692 108.517 36.608 108.475 36.475C108.356 36.097 108.209 35.649 108.125 35.39H106.823C106.711 35.768 106.585 36.153 106.501 36.482C106.466 36.622 106.48 36.699 106.62 36.713L107.019 36.748V37H105.506V36.748C105.857 36.727 105.92 36.678 106.032 36.412C106.368 35.621 107.012 33.633 107.41 32.401H108.307C108.678 33.542 109.336 35.565 109.672 36.44C109.77 36.699 109.861 36.741 110.197 36.748V37ZM108.02 35.068C107.873 34.634 107.607 33.745 107.481 33.304H107.46C107.334 33.71 107.089 34.536 106.921 35.068H108.02ZM110.884 36.363V33.066C110.884 32.737 110.821 32.695 110.373 32.681V32.429H112.543V32.681C112.088 32.695 112.032 32.73 112.032 33.066V36.363C112.032 36.699 112.088 36.727 112.543 36.748V37H110.373V36.748C110.821 36.727 110.884 36.692 110.884 36.363ZM113.628 32.884C113.698 32.786 113.684 32.723 113.586 32.709L113.18 32.667V32.429H114.979V32.667C114.594 32.695 114.468 32.737 114.251 32.891C113.775 33.248 113.467 33.64 112.949 34.186C113.299 34.781 113.957 35.761 114.517 36.398C114.671 36.58 114.888 36.734 115.042 36.776L115.014 37.042L114.566 37.028C113.684 37.007 113.348 36.888 112.9 36.237C112.592 35.796 112.382 35.411 112.046 34.753V34.697C112.599 34.144 113.292 33.346 113.628 32.884ZM115.247 32.429H118.775V33.668H118.523C118.299 33.031 118.187 32.737 117.515 32.737H117.13C116.955 32.737 116.906 32.793 116.906 32.975V34.557H117.606C117.998 34.557 118.096 34.438 118.208 33.941H118.46V35.502H118.208C118.096 35.012 117.998 34.9 117.606 34.9H116.906V36.363C116.906 36.692 116.962 36.727 117.529 36.748V37H115.247V36.748C115.695 36.734 115.758 36.692 115.758 36.363V33.066C115.758 32.73 115.702 32.695 115.247 32.681V32.429ZM123.226 37H121.007V36.748L121.399 36.706C121.532 36.692 121.546 36.608 121.504 36.475C121.385 36.097 121.238 35.649 121.154 35.39H119.852C119.74 35.768 119.614 36.153 119.53 36.482C119.495 36.622 119.509 36.699 119.649 36.713L120.048 36.748V37H118.536V36.748C118.886 36.727 118.949 36.678 119.061 36.412C119.397 35.621 120.041 33.633 120.44 32.401H121.336C121.707 33.542 122.365 35.565 122.701 36.44C122.799 36.699 122.89 36.741 123.226 36.748V37ZM121.049 35.068C120.902 34.634 120.636 33.745 120.51 33.304H120.489C120.363 33.71 120.118 34.536 119.95 35.068H121.049ZM126.42 33.703H126.182C125.986 32.919 125.58 32.618 125.16 32.618C124.754 32.618 124.502 32.912 124.502 33.297C124.502 33.794 124.964 33.983 125.503 34.228C126.091 34.501 126.7 34.781 126.7 35.663C126.7 36.356 126.301 37.112 124.964 37.112C124.53 37.112 123.9 37.035 123.55 36.727L123.466 35.502H123.711C123.977 36.342 124.446 36.804 124.95 36.804C125.363 36.804 125.657 36.587 125.657 36.097C125.657 35.705 125.447 35.467 124.831 35.194C124.047 34.844 123.501 34.522 123.501 33.703C123.501 32.926 123.97 32.31 125.16 32.31C125.552 32.31 126.063 32.394 126.42 32.604V33.703ZM129.62 32.737V36.37C129.62 36.608 129.669 36.706 129.858 36.72L130.243 36.748V37H127.856V36.748L128.234 36.72C128.423 36.706 128.472 36.601 128.472 36.37V32.737H128.227C127.646 32.737 127.562 33.031 127.317 33.689H127.065V32.429H131.034V33.689H130.782C130.537 33.031 130.453 32.737 129.865 32.737H129.62Z" fill="#222222"/>
<rect x="134" y="34.9448" width="3" height="3" transform="rotate(-43.509 134 34.9448)" fill="#222222"/>
<path d="M143.117 33.066V36.216C143.117 36.643 143.264 36.692 143.796 36.692C144.559 36.692 144.601 36.293 144.853 35.67H145.105L145.042 37H141.451V36.748C141.906 36.727 141.969 36.692 141.969 36.363V33.066C141.969 32.73 141.906 32.695 141.451 32.681V32.429H143.712V32.681C143.166 32.702 143.117 32.73 143.117 33.066ZM147.961 32.429H150.026V32.681C149.592 32.695 149.536 32.73 149.536 33.066V35.558C149.536 35.922 149.473 36.216 149.326 36.44C149.046 36.902 148.5 37.112 147.653 37.112C146.778 37.112 146.253 36.937 145.966 36.538C145.798 36.286 145.714 35.971 145.714 35.551V33.066C145.714 32.73 145.658 32.695 145.231 32.681V32.429H147.352V32.681C146.925 32.702 146.862 32.73 146.862 33.066V35.677C146.862 36.426 147.114 36.804 147.646 36.804C148.206 36.804 148.444 36.419 148.444 35.677V33.066C148.444 32.73 148.388 32.695 147.961 32.681V32.429ZM154.466 37H153.71C152.947 35.789 152.156 34.571 151.358 33.353H151.33V35.292C151.33 35.866 151.337 36.111 151.365 36.356C151.4 36.797 151.645 36.713 152.002 36.748V37H150.392V36.748C150.742 36.706 150.868 36.762 150.91 36.356C150.938 36.125 150.945 35.866 150.945 35.292V33.066C150.945 32.737 150.882 32.695 150.434 32.681V32.429H152.037C152.709 33.479 153.374 34.452 154.053 35.481H154.081V34.13C154.081 33.57 154.074 33.311 154.053 33.073C154.011 32.632 153.773 32.716 153.402 32.681V32.429H154.998V32.681C154.655 32.723 154.543 32.674 154.494 33.073C154.473 33.311 154.466 33.563 154.466 34.13V37ZM159.185 35.488H159.444L159.36 36.804C158.954 37.049 158.268 37.112 157.813 37.112C156.042 37.112 155.398 36.146 155.398 34.767C155.398 34.088 155.552 33.465 155.958 33.01C156.35 32.576 156.987 32.31 157.932 32.31C158.226 32.31 158.961 32.359 159.367 32.611V33.808H159.115C158.912 33.269 158.737 32.618 157.883 32.618C156.693 32.618 156.658 34.242 156.658 34.641C156.658 35.383 156.805 36.804 157.953 36.804C158.681 36.804 158.933 36.223 159.185 35.488ZM163.184 34.718H161.602V36.363C161.602 36.692 161.658 36.727 162.113 36.748V37H159.943V36.748C160.398 36.727 160.454 36.692 160.454 36.363V33.066C160.454 32.737 160.398 32.695 159.943 32.681V32.429H162.113V32.681C161.658 32.695 161.602 32.73 161.602 33.066V34.396H163.184V33.066C163.184 32.737 163.121 32.695 162.673 32.681V32.429H164.843V32.681C164.388 32.695 164.332 32.73 164.332 33.066V36.363C164.332 36.692 164.388 36.727 164.843 36.748V37H162.673V36.748C163.128 36.727 163.184 36.699 163.184 36.363V34.718Z" fill="#222222"/>
<rect x="167.241" y="34.9448" width="3" height="3" transform="rotate(-43.509 167.241 34.9448)" fill="#222222"/>
<path d="M176.358 32.898V36.447C176.358 36.615 176.435 36.692 176.827 36.692C177.45 36.692 178.08 36.433 178.08 34.676C178.08 33.374 177.611 32.737 176.799 32.737C176.421 32.737 176.358 32.772 176.358 32.898ZM174.699 32.429H176.967C177.835 32.429 178.402 32.597 178.78 32.968C179.158 33.346 179.333 33.885 179.333 34.641C179.333 36.909 177.583 37 176.624 37H174.699V36.748C175.154 36.727 175.21 36.699 175.21 36.363V33.073C175.21 32.73 175.147 32.695 174.699 32.681V32.429ZM181.485 33.066V36.363C181.485 36.692 181.541 36.727 181.996 36.748V37H179.826V36.748C180.274 36.727 180.337 36.692 180.337 36.363V33.066C180.337 32.737 180.274 32.695 179.826 32.681V32.429H181.996V32.681C181.541 32.695 181.485 32.73 181.485 33.066ZM186.463 37H185.707C184.944 35.789 184.153 34.571 183.355 33.353H183.327V35.292C183.327 35.866 183.334 36.111 183.362 36.356C183.397 36.797 183.642 36.713 183.999 36.748V37H182.389V36.748C182.739 36.706 182.865 36.762 182.907 36.356C182.935 36.125 182.942 35.866 182.942 35.292V33.066C182.942 32.737 182.879 32.695 182.431 32.681V32.429H184.034C184.706 33.479 185.371 34.452 186.05 35.481H186.078V34.13C186.078 33.57 186.071 33.311 186.05 33.073C186.008 32.632 185.77 32.716 185.399 32.681V32.429H186.995V32.681C186.652 32.723 186.54 32.674 186.491 33.073C186.47 33.311 186.463 33.563 186.463 34.13V37ZM191.371 37H190.615C189.852 35.789 189.061 34.571 188.263 33.353H188.235V35.292C188.235 35.866 188.242 36.111 188.27 36.356C188.305 36.797 188.55 36.713 188.907 36.748V37H187.297V36.748C187.647 36.706 187.773 36.762 187.815 36.356C187.843 36.125 187.85 35.866 187.85 35.292V33.066C187.85 32.737 187.787 32.695 187.339 32.681V32.429H188.942C189.614 33.479 190.279 34.452 190.958 35.481H190.986V34.13C190.986 33.57 190.979 33.311 190.958 33.073C190.916 32.632 190.678 32.716 190.307 32.681V32.429H191.903V32.681C191.56 32.723 191.448 32.674 191.399 33.073C191.378 33.311 191.371 33.563 191.371 34.13V37ZM192.765 36.363V33.066C192.765 32.73 192.709 32.695 192.254 32.681V32.429H195.838V33.661H195.586C195.362 33.017 195.243 32.737 194.578 32.737H194.13C193.948 32.737 193.899 32.786 193.899 32.975V34.445H194.459C194.858 34.445 194.949 34.333 195.061 33.843H195.313V35.425H195.061C194.949 34.935 194.858 34.788 194.459 34.788H193.899V36.216C193.899 36.629 193.934 36.692 194.676 36.692C195.453 36.692 195.565 36.293 195.817 35.6H196.069L195.971 37H192.254V36.748C192.702 36.734 192.765 36.692 192.765 36.363ZM198.179 34.893V36.363C198.179 36.692 198.235 36.727 198.69 36.748V37H196.513V36.748C196.968 36.727 197.031 36.692 197.031 36.363V33.066C197.031 32.73 196.975 32.702 196.513 32.681V32.429H198.823C199.614 32.429 200.391 32.52 200.391 33.556C200.391 34.221 199.929 34.585 199.271 34.662V34.704C200.006 34.872 200.251 35.32 200.342 35.845C200.44 36.356 200.552 36.727 201 36.748V37H200.468C199.733 37 199.404 36.825 199.243 36.328C199.131 35.992 199.096 35.635 199.047 35.397C198.956 35.005 198.788 34.893 198.424 34.893H198.179ZM198.179 32.975V34.585H198.431C199.131 34.585 199.222 34.13 199.222 33.64C199.222 33.01 198.921 32.737 198.508 32.737C198.186 32.737 198.179 32.793 198.179 32.975Z" fill="#222222"/>
<ellipse cx="16.5" cy="20" rx="15.5" ry="18" fill="white"/>
<path d="M12.8026 20.7552V2.76071C17.4737 1.26116 28.3572 0.961256 34.523 11.758C42.2302 25.2539 29.6184 35.0009 28.2171 35.0009C26.8158 35.0009 21.2105 39.4995 15.6053 37.2502V33.5014C24.5737 35.9006 27.75 27.0033 28.2171 22.2548H33.1217V19.2557H25.4144L20.143 28.4798C19.803 29.0746 18.979 29.1592 18.5253 28.6457L14.2039 23.7543H10V20.7552H12.8026Z" fill="black"/>
<circle cx="19" cy="20" r="18" stroke="#A8A8A8" stroke-width="2"/>
<path d="M27.5171 15.4138L28.8274 16.7378L30.1378 15.4138" stroke="white" stroke-width="2" stroke-linecap="round"/>
</svg>
